<svg xmlns="http://www.w3.org/2000/svg" id="svg278" width="195" height="110" version="1.1"><defs id="defs225"><style id="style223">.cls-3{fill:#ecf0f1}.cls-12{fill:#fff}</style></defs><g id="g553" style="stroke-width:.995444" transform="scale(1 1.00917)"><path id="rect229" d="M0 0h195v109H0z" style="fill:#d4efff;stroke-width:.995444"/><circle id="circle239" cx="24.73" cy="24.07" r="17.1" style="fill:#2a80bb;stroke-width:.995444"/><path id="polygon241" d="m289.72 105.45 11.28 9.84v43.21H106v-13.34l44.46-37.34 22.21 18.67 17.56-14.73 53.64-45.11z" style="fill:#3497da;stroke-width:.995444" transform="translate(-106 -49.5)"/><path id="path262" d="M56.2 46H34.37a8.62 8.62 0 0 1-3.81-16.5v-.76A10.27 10.27 0 0 1 50.3 24.9a5 5 0 0 1 3.33-1.23 5.15 5.15 0 0 1 5.14 5.14 5.06 5.06 0 0 1-.82 2.77 7.28 7.28 0 0 1 6 7.11A7.38 7.38 0 0 1 56.2 46" class="cls-12" style="stroke-width:.995444"/><g id="g266" style="opacity:.6;stroke-width:.995444" transform="translate(-106 -49.5)"><path id="path264" d="M152.86 95.5H131a8.62 8.62 0 0 1-3.78-16.5v-.76A10.27 10.27 0 0 1 147 74.4a5 5 0 0 1 3.33-1.23 5.15 5.15 0 0 1 5.14 5.14 5.06 5.06 0 0 1-.82 2.77 7.28 7.28 0 0 1 6 7.11 7.38 7.38 0 0 1-7.79 7.31" class="cls-12" style="stroke-width:.995444"/></g><g id="g270" style="opacity:.3;stroke-width:.995444" transform="translate(-106 -49.5)"><path id="path268" d="M143.82 95.5H122a8.62 8.62 0 0 1-3.81-16.5v-.76a10.27 10.27 0 0 1 19.78-3.82 5 5 0 0 1 3.33-1.23 5.15 5.15 0 0 1 5.14 5.14 5.06 5.06 0 0 1-.82 2.77 7.28 7.28 0 0 1 6 7.11 7.38 7.38 0 0 1-7.8 7.29" class="cls-12" style="stroke-width:.995444"/></g></g><g id="g543" transform="translate(0 -18)"><path id="rect231" d="M0 109h195v19H0z" style="fill:#34495e"/><path id="polygon233" d="m112 162.77 7.52 4.34-7.52 4.34z" class="cls-3" transform="translate(-106 -49.5)"/><path id="rect235" d="M18 116h169v5H18z" style="fill:#2c3e50"/><path id="rect237" d="M18 116h52v5H18z" class="cls-3"/></g></svg>